<?xml version="1.0" encoding="UTF-8" standalone="no"?>
<!-- Created with Inkscape (http://www.inkscape.org/) -->

<svg
   width="198.79628mm"
   height="189.87955mm"
   viewBox="0 0 198.79628 189.87955"
   version="1.1"
   id="svg5"
   xml:space="preserve"
   xmlns="http://www.w3.org/2000/svg"
   xmlns:svg="http://www.w3.org/2000/svg"><defs
     id="defs2" /><g
     id="layer1"
     transform="translate(-7.6721598,-40.672104)"><g
       id="g1056"><path
         style="fill:#000000;stroke:none;stroke-width:4"
         d="m 158.73516,228.22611 c -0.062,-0.27302 -0.42457,-5.22277 -0.80562,-10.99945 -0.38104,-5.77668 -0.759,-10.59088 -0.83991,-10.69822 -0.0809,-0.10734 -1.58552,-0.0373 -3.34359,0.15565 -8.53085,0.93627 -13.11194,0.99095 -25.98103,0.31012 -12.74102,-0.67405 -15.26946,-0.96183 -24.36061,-2.77267 C 73.046707,198.17466 48.611137,183.41995 33.144777,161.7973 24.019417,149.03966 17.374027,132.75043 13.640387,113.988 10.039207,95.891211 8.9457172,77.191966 10.127667,53.918697 l 0.55021,-10.833993 1.73348,-0.209857 c 0.95342,-0.115421 2.03745,-0.206462 2.40897,-0.202314 l 0.6755,0.0075 -0.0135,6.376094 c -0.0594,28.102056 3.4962,54.253563 9.81352,72.179483 2.49045,7.06684 7.4297,16.34037 11.7663,22.09144 2.43641,3.2311 7.02198,8.23751 9.84495,10.74848 9.29241,8.26538 22.38581,14.44793 37.56422,17.73739 17.102833,3.70652 37.912763,4.40318 58.862433,1.97056 4.84072,-0.56209 11.11579,-1.49027 11.32324,-1.67488 0.0688,-0.0612 -0.29371,-6.11072 -0.80555,-13.44334 -0.51184,-7.33263 -0.87523,-13.23811 -0.82488,-13.28334 0.0503,-0.0452 11.39361,8.2784 25.22461,18.657 l 25.14727,18.87017 -0.67083,0.65305 c -0.36896,0.35917 -10.2964,10.57091 -22.06097,22.69275 -11.76456,12.12184 -21.48655,22.13598 -21.60441,22.25364 -0.11786,0.11766 -0.26505,-0.009 -0.3271,-0.28246 z"
         id="path963" /><path
         style="color:#000000;fill:#ffffff;-inkscape-stroke:none"
         d="m 14.843467,40.672573 c -0.74162,-0.0083 -1.66346,0.09472 -2.67187,0.216797 l -3.4062498,0.412109 -0.63477,12.515625 c -1.18787,23.389847 -0.0887,42.281137 3.5488298,60.560546 3.77905,18.99062 10.51118,35.54485 19.83789,48.58398 15.79579,22.08321 40.72879,37.09224 71.496093,43.22071 9.12101,1.81678 11.88943,2.13369 24.64649,2.80859 12.89972,0.68245 17.70506,0.62546 26.30469,-0.31836 0.51421,-0.0564 0.89603,-0.0788 1.32617,-0.11133 0.0368,0.42984 0.0687,0.78004 0.11328,1.34766 0.15126,1.9267 0.33923,4.56781 0.5293,7.44922 0.19079,2.89247 0.3769,5.5775 0.52343,7.57812 0.0733,1.00031 0.13798,1.82852 0.1875,2.43164 0.0248,0.30156 0.0443,0.54525 0.0625,0.73438 0.0182,0.18913 -0.0275,0.10121 0.0781,0.56641 0.0489,0.21569 0.29261,0.48255 0.41992,0.7246 0.11148,0.21195 0.0892,0.395 0.36719,0.63477 0.29771,0.2568 0.80783,0.53128 1.42383,0.52344 0.61599,-0.008 1.17477,-0.32373 1.47851,-0.62696 0.16944,-0.16915 0.20154,-0.20652 0.50196,-0.51562 0.30041,-0.3091 0.73501,-0.75565 1.29101,-1.32813 1.11201,-1.14495 2.70611,-2.78789 4.66406,-4.80468 3.91591,-4.03358 9.28759,-9.56793 15.16993,-15.62891 5.88195,-6.06057 11.30476,-11.64339 15.30273,-15.75586 1.99899,-2.05623 3.64309,-3.74506 4.80859,-4.9414 1.16551,-1.19634 1.99997,-2.04251 1.91016,-1.95508 l 2.3457,-2.28321 -27.01758,-20.27148 c -6.92013,-5.19278 -13.21711,-9.87189 -17.79296,-13.24805 -2.28793,-1.68808 -4.14489,-3.04972 -5.4375,-3.99023 -0.64631,-0.47026 -1.14938,-0.83486 -1.50196,-1.08594 -0.17629,-0.12554 -0.314,-0.22177 -0.42383,-0.29687 -0.0549,-0.0376 -0.0996,-0.0687 -0.16406,-0.10938 -0.0322,-0.0203 -0.0605,-0.0388 -0.14844,-0.0859 -0.044,-0.0236 -0.0918,-0.0544 -0.24804,-0.11328 -0.0781,-0.0294 -0.41938,-0.10734 -0.41992,-0.10742 -5.4e-4,-8e-5 -1.62481,0.49201 -1.625,0.49219 -0.002,0.003 -0.43927,0.568 -0.43946,0.56836 -1.8e-4,3.5e-4 -0.10455,0.23285 -0.1289,0.30859 -0.0487,0.15148 -0.0601,0.22916 -0.0703,0.29102 -0.0204,0.12371 -0.0207,0.17406 -0.0234,0.21875 -0.005,0.0894 -0.006,0.13234 -0.006,0.17773 4e-5,0.0908 0.002,0.17181 0.006,0.27344 0.007,0.20326 0.0193,0.47291 0.0371,0.8164 0.0356,0.687 0.0935,1.66211 0.16796,2.86524 0.14901,2.40626 0.36878,5.71991 0.625,9.39062 0.25555,3.66092 0.47373,7.00099 0.61915,9.42774 0.0569,0.95022 0.0907,1.61926 0.12304,2.25 -0.61597,0.10305 -1.28583,0.21471 -2.1582,0.34375 -2.17721,0.32204 -4.94447,0.69278 -7.33789,0.9707 -20.75546,2.41007 -41.38368,1.70692 -58.208993,-1.93945 -14.90411,-3.23001 -27.69283,-9.30286 -36.6582,-17.27735 -2.64019,-2.34839 -7.26813,-7.39617 -9.57617,-10.45703 -4.15387,-5.50873 -9.08129,-14.75042 -11.47852,-21.55273 -6.19283,-17.57268 -9.75825,-43.579058 -9.69922,-71.509765 l 0.0176,-8.359375 z m -1.35156,4.113281 -0.01,4.265625 c -0.0598,28.273349 3.48594,54.570481 9.92774,72.849611 2.58367,7.33135 7.53536,16.63746 12.05469,22.63086 2.56478,3.40134 7.10754,8.36357 10.11328,11.03711 9.61943,8.55626 23.01802,14.85032 38.4707,18.19921 17.380323,3.76666 38.371793,4.45712 59.515633,2.00196 2.44729,-0.28417 5.23857,-0.65761 7.46093,-0.98633 1.11119,-0.16436 2.07859,-0.3181 2.80274,-0.44531 0.36207,-0.0636 0.65879,-0.11859 0.91015,-0.17383 0.12569,-0.0276 0.23707,-0.0547 0.3711,-0.0937 0.067,-0.0196 0.13715,-0.04 0.24804,-0.084 0.1109,-0.044 0.23257,-0.0321 0.62891,-0.38476 2.7e-4,-2.4e-4 0.38256,-0.45661 0.38281,-0.45703 2.6e-4,-4.2e-4 0.11376,-0.21639 0.14453,-0.29297 0.0616,-0.15316 0.0818,-0.24391 0.0977,-0.31445 0.0316,-0.14109 0.0357,-0.20373 0.041,-0.25782 0.0106,-0.10817 0.0106,-0.15838 0.0117,-0.21093 0.002,-0.10511 5.6e-4,-0.19284 -0.002,-0.30079 -0.005,-0.21589 -0.0147,-0.49433 -0.0312,-0.84765 -0.0331,-0.70664 -0.0888,-1.70255 -0.16211,-2.92578 -0.1466,-2.44647 -0.36479,-5.79705 -0.62109,-9.46875 -0.24798,-3.55261 -0.45582,-6.708 -0.60352,-9.08008 1.16515,0.85198 2.3363,1.7085 4.03907,2.96484 4.56612,3.36898 10.85672,8.04271 17.76757,13.22852 l 23.30664,17.48633 c -0.31786,0.32596 -0.4156,0.42332 -1.00976,1.0332 -1.1673,1.19818 -2.81099,2.88849 -4.81055,4.94531 -3.99912,4.11365 -9.42208,9.69656 -15.30469,15.75781 -5.88221,6.06086 -11.25423,11.59555 -15.16992,15.62891 -1.52928,1.57524 -2.61378,2.69253 -3.64258,3.75195 -0.14173,-1.94948 -0.31397,-4.4172 -0.49414,-7.14843 -0.19097,-2.89527 -0.38195,-5.54861 -0.53515,-7.5 -0.0766,-0.9757 -0.14263,-1.77316 -0.19727,-2.34961 -0.0273,-0.28823 -0.0511,-0.5192 -0.0742,-0.70703 -0.0115,-0.0939 -0.0219,-0.17359 -0.0391,-0.27344 -0.009,-0.0499 -0.0175,-0.10095 -0.041,-0.19531 -0.0235,-0.0944 0.13533,-0.0982 -0.35157,-0.74414 -0.46915,-0.62249 -0.80112,-0.64679 -0.99218,-0.71094 -0.19107,-0.0642 -0.30199,-0.079 -0.39844,-0.0937 -0.1929,-0.0294 -0.31924,-0.0349 -0.45508,-0.0391 -0.27169,-0.008 -0.5552,1e-4 -0.88867,0.0156 -0.66694,0.0311 -1.51133,0.0989 -2.42578,0.19922 -8.46206,0.92872 -12.81782,0.97999 -25.65625,0.30078 -12.72496,-0.6732 -15.0149,-0.93144 -24.07618,-2.73633 -29.948013,-5.96528 -53.886533,-20.4649 -69.023433,-41.62695 -8.92399,-12.47612 -15.4817,-28.50095 -19.16992,-47.03516 -3.56484,-17.914129 -4.65259,-36.421476 -3.47657,-59.578121 l 0.46485,-9.152344 0.0625,-0.0078 c 0.35155,-0.04256 0.47716,-0.04369 0.83984,-0.07422 z"
         id="path1014" /></g></g></svg>
